PathFileType	4	(X/Y/Z)	./resultDataOpenSim/trcMotMarkerGrf/sub09/qtm-03-07.trc
DataRate	CameraRate	NumFrames	NumMarkers	Units	OrigDataRate	OrigDataStartFrame	OrigNumFrames
250.000000	250.000000	9	24	m	250.000000	369	491
Frame#	Time	L.Toe.Tip			R.Toe.Tip			L.Ankle.Lat			R.Ankle.Lat			L.Ankle.Med			R.Ankle.Med			L.Heel			R.Heel			L.Knee.Lat			R.Knee.Lat			L.Knee.Med			R.Knee.Med			L.Thigh.Upper			R.Thigh.Upper			L.ASIS			R.ASIS			V.Sacral			L.Acromium			R.Acromium			C7			L.Elbow			R.Elbow			L.Wrist.Lat			R.Wrist.Lat
		X1	Y1	Z1	X2	Y2	Z2	X3	Y3	Z3	X4	Y4	Z4	X5	Y5	Z5	X6	Y6	Z6	X7	Y7	Z7	X8	Y8	Z8	X9	Y9	Z9	X10	Y10	Z10	X11	Y11	Z11	X12	Y12	Z12	X13	Y13	Z13	X14	Y14	Z14	X15	Y15	Z15	X16	Y16	Z16	X17	Y17	Z17	X18	Y18	Z18	X19	Y19	Z19	X20	Y20	Z20	X21	Y21	Z21	X22	Y22	Z22	X23	Y23	Z23	X24	Y24	Z24

369	1.472	0.81319594	0.12058283	-0.032261293	1.0205236	0.041078123	0.08169395	0.73293435	0.25122904	-0.058889525	0.87372598	0.05996037	0.12586162	0.76134361	0.24091621	0.03515829	0.88473067	0.10519982	0.03794687	0.65617822	0.26951986	-0.0084607916	0.80371808	0.044831162	0.076973454	1.0446513	0.511845	-0.088221645	0.97115603	0.50981447	0.19713747	1.0558677	0.50272182	0.038836023	0.95258447	0.49961249	0.069511726	0.89121922	0.896394	-0.11390662	0.89867474	0.912566	0.25586095	0.96621522	0.98403809	-0.058658832	0.982813	0.99448146	0.17818753	0.80735996	1.0475374	0.065031789	0.96608335	1.4455895	-0.10763566	0.96988951	1.4516134	0.222638	0.89882872	1.4959801	0.059759333	0.8434702	1.0927633	-0.14802757	0.82943204	1.1138207	0.32391844	0.99877464	0.8790072	-0.17383179	1.0125853	0.90406176	0.32494664
370	1.476	0.83039917	0.11878529	-0.03249568	1.0206577	0.041111858	0.081866967	0.74706265	0.247439	-0.058739518	0.87383793	0.060430801	0.12590533	0.77656346	0.23746058	0.035036757	0.88519218	0.10571152	0.038059879	0.66993032	0.26398624	-0.0083585458	0.80415685	0.045677854	0.076850805	1.0541492	0.51429109	-0.08745828	0.97219086	0.50960525	0.19689094	1.0721589	0.50599244	0.041152097	0.95436115	0.49992136	0.069815951	0.89726491	0.89763069	-0.11391397	0.90393652	0.91344402	0.25552053	0.97170803	0.98522748	-0.05831724	0.98765896	0.99528892	0.17857052	0.81256033	1.048471	0.064959088	0.97119621	1.4463665	-0.1075844	0.97509463	1.4526558	0.22270177	0.90402373	1.4969051	0.059859193	0.84733006	1.0942105	-0.14786437	0.83503728	1.1143148	0.32413578	1.0000399	0.87895195	-0.17503976	1.0206106	0.90645197	0.32395584
371	1.48	0.84765837	0.11694927	-0.032611712	1.0208086	0.04114191	0.082028456	0.76137191	0.24345922	-0.058616859	0.87398043	0.060895448	0.1259408	0.79197331	0.23393049	0.034871191	0.88571927	0.10621364	0.038171473	0.68382688	0.25822549	-0.008337779	0.80456934	0.046435132	0.076864065	1.0634755	0.51664024	-0.086713603	0.97345605	0.50962394	0.19697359	1.0899777	0.50927521	0.043896606	0.95625985	0.50017943	0.070099014	0.90322649	0.89878745	-0.11394341	0.90885234	0.91415951	0.25538614	0.97720219	0.98634855	-0.057988372	0.99248289	0.99604785	0.17893528	0.8177501	1.0493535	0.064876543	0.97631565	1.4470896	-0.10753764	0.98026603	1.4536352	0.2227665	0.90922958	1.4977567	0.060003641	0.85118708	1.0956018	-0.14771741	0.84062516	1.1147502	0.32434144	1.0013241	0.87889349	-0.17624175	1.028584	0.90880737	0.32294909
372	1.484	0.86499445	0.11511707	-0.03260929	1.0209623	0.041160525	0.08217756	0.77583658	0.23931311	-0.058501416	0.87413461	0.06135549	0.12597031	0.80719126	0.23032314	0.034797955	0.88628657	0.10669645	0.038294715	0.69789601	0.25222102	-0.008422153	0.80499929	0.047065971	0.07697672	1.0725536	0.51892721	-0.086012772	0.97489221	0.50976889	0.19730732	1.1053618	0.51227517	0.04604341	0.95821256	0.5004446	0.070360088	0.90920272	0.89987028	-0.1139234	0.91317387	0.91463885	0.25558677	0.98269251	0.98740281	-0.057669105	0.99729724	0.99675725	0.17928243	0.82290385	1.0501721	0.064774038	0.98144375	1.4477606	-0.10749865	0.98541278	1.4545548	0.22283677	0.91444409	1.4985338	0.060194454	0.85506841	1.0969405	-0.14761209	0.84619606	1.1151265	0.32453279	1.0026307	0.87883327	-0.17743268	1.0365015	0.91113199	0.32192722
373	1.488	0.88246775	0.11328287	-0.032472643	1.0211007	0.041155021	0.082321918	0.79044058	0.23501072	-0.058379215	0.87430474	0.06181333	0.12599586	0.82215035	0.22663065	0.034848606	0.88681597	0.10717034	0.038459279	0.71216383	0.2459823	-0.0085916688	0.8054302	0.047625736	0.077083989	1.0813832	0.52115265	-0.085365903	0.97639267	0.50991727	0.19776073	1.1168348	0.51488432	0.047226557	0.96022033	0.50073853	0.070639341	0.91523475	0.90087591	-0.11378854	0.91685909	0.91495972	0.2560493	0.98818779	0.98839369	-0.057358566	1.0021105	0.99742126	0.1796239	0.82802314	1.0509238	0.064661247	0.98658015	1.4483818	-0.1074681	0.99054172	1.4554186	0.22291273	0.9196505	1.4992518	0.060392768	0.85900194	1.0982351	-0.14755737	0.85176315	1.1154457	0.32471521	1.0039563	0.87877222	-0.17861085	1.0443738	0.9134382	0.32089456
374	1.492	0.90021707	0.11140503	-0.032216251	1.0212182	0.041117426	0.082468708	0.80517752	0.23056141	-0.0582454	0.87449862	0.062268482	0.12601337	0.83701058	0.22284547	0.034976133	0.88729289	0.10765813	0.038663782	0.72661345	0.23954474	-0.0087748539	0.80579382	0.048210685	0.077095056	1.0900185	0.52327524	-0.084757811	0.97790311	0.51001617	0.19823624	1.1257991	0.51720498	0.047813409	0.96234163	0.5010111	0.070977815	0.92120563	0.90179766	-0.11358173	0.91984672	0.91527674	0.25661432	0.99370232	0.9893226	-0.057055317	1.0069284	0.99804155	0.17997323	0.83312126	1.0516013	0.064544112	0.99172219	1.4489583	-0.10743835	0.99565428	1.4562281	0.22299023	0.92482809	1.4999295	0.060548076	0.86297255	1.0994876	-0.14752548	0.8573383	1.1157105	0.32489535	1.0052998	0.87870966	-0.179775	1.0522329	0.91573988	0.31985654
375	1.496	0.91830573	0.10946371	-0.031890176	1.0213384	0.04104883	0.082610724	0.82003609	0.22598641	-0.058091041	0.87470299	0.06271679	0.12601323	0.85192575	0.21896693	0.035141976	0.8877654	0.1081636	0.038832488	0.74121817	0.23295023	-0.0089155595	0.80606427	0.048863146	0.076993091	1.0985021	0.52524135	-0.084163891	0.97942644	0.5100956	0.19869003	1.1338479	0.5193516	0.048212419	0.96459997	0.50119046	0.071375856	0.92689181	0.90263478	-0.11347411	0.92213441	0.91565349	0.25719683	0.99923059	0.99018938	-0.056751197	1.0117521	0.99861675	0.18033535	0.83820124	1.0521868	0.064416158	0.99686479	1.4494971	-0.1073985	1.0007479	1.4569846	0.22306697	0.92997385	1.5005683	0.060645275	0.86695134	1.1006936	-0.14748897	0.86292452	1.1159186	0.32507597	1.0066679	0.87864303	-0.18092321	1.060112	0.91803992	0.31881442
376	1.5	0.93659454	0.10746632	-0.031536294	1.0214943	0.04095299	0.08272973	0.83501819	0.22130587	-0.05790706	0.87489283	0.063156524	0.12599082	0.86696068	0.21500278	0.035340492	0.88819019	0.10864848	0.038875834	0.75600776	0.22622611	-0.0090336306	0.80626373	0.049557673	0.076805631	1.1068388	0.52702032	-0.083573161	0.98097034	0.51019374	0.19910655	1.141099	0.52132738	0.048458337	0.96691531	0.50127542	0.07179338	0.93229368	0.90339781	-0.11354331	0.92434899	0.91606817	0.25769513	1.0047546	0.99099423	-0.05644334	1.0165805	0.99914673	0.18070752	0.84326748	1.0526737	0.064269257	1.0020059	1.4500003	-0.1073444	1.0058213	1.4576884	0.22314558	0.9351061	1.501159	0.060698121	0.87093549	1.1018521	-0.14744823	0.86852181	1.1160676	0.32526128	1.008064	0.87857081	-0.1820607	1.0679912	0.92031956	0.31776262
377	1.504	0.95490522	0.1054299	-0.03115797	1.0216744	0.040842561	0.082826594	0.85014663	0.2165231	-0.057697911	0.87505705	0.063589394	0.12594788	0.88209513	0.2109641	0.035587439	0.88847421	0.10906119	0.038796553	0.77101951	0.21938777	-0.0091627736	0.80641773	0.050256735	0.076557947	1.1150132	0.52861812	-0.082995024	0.9825325	0.51030827	0.19948626	1.1463042	0.52303402	0.048241587	0.96916444	0.50133307	0.072205044	0.93771133	0.90410005	-0.11367688	0.92750341	0.91652104	0.25795114	1.0102749	0.99173589	-0.056138702	1.0214125	0.99963286	0.18108452	0.84834248	1.0530763	0.06410508	1.0071524	1.450467	-0.10728346	1.0108771	1.458335	0.22322877	0.94024297	1.5016985	0.060721742	0.87494397	1.1029689	-0.14741464	0.87412792	1.1161605	0.32545509	1.0094875	0.87849409	-0.18319415	1.0757974	0.92254934	0.31669456
